<?xml version="1.0" encoding="utf-8"?>
<!-- Generator: Adobe Illustrator 27.0.0, SVG Export Plug-In . SVG Version: 6.00 Build 0)  -->
<svg version="1.1" id="Layer_1" xmlns="http://www.w3.org/2000/svg" xmlns:xlink="http://www.w3.org/1999/xlink" x="0px" y="0px"
	 viewBox="0 0 75 75" style="enable-background:new 0 0 75 75;" xml:space="preserve">
<style type="text/css">
	.st0{fill:#881CF9;}
	.st1{fill:none;stroke:#881CF9;stroke-width:2.8846;stroke-miterlimit:14.4231;}
</style>
<g>
	<g>
		<path class="st0" d="M46.2,38.9c-2.7,0-5.1,1.5-6.4,3.9l-6.6-1.9c0-0.2,0-0.4,0-0.5c0-1.2-0.3-2.4-0.9-3.4l6.5-5.4
			c1.3,1,2.8,1.6,4.5,1.6c4,0,7.2-3.2,7.2-7.2s-3.2-7.2-7.2-7.2c-4,0-7.2,3.2-7.2,7.2c0,1.2,0.3,2.4,0.9,3.4l-6.5,5.4
			c-1.3-1-2.8-1.6-4.5-1.6c-4,0-7.2,3.2-7.3,7.2s3.2,7.2,7.2,7.3c2.7,0,5.2-1.5,6.4-3.9l6.6,1.9c0,0.2,0,0.4,0,0.5
			c0,4,3.2,7.2,7.2,7.2s7.2-3.2,7.2-7.2S50.1,38.9,46.2,38.9z M43.3,21.6c2.4,0,4.3,1.9,4.3,4.3s-1.9,4.3-4.3,4.3s-4.3-1.9-4.3-4.3
			S40.9,21.6,43.3,21.6z M26,44.7c-2.4,0-4.3-1.9-4.3-4.3s1.9-4.3,4.3-4.3s4.3,1.9,4.3,4.3S28.4,44.7,26,44.7z M46.2,50.5
			c-2.4,0-4.3-1.9-4.3-4.3c0-2.4,1.9-4.3,4.3-4.3c2.4,0,4.3,1.9,4.3,4.3C50.5,48.5,48.5,50.5,46.2,50.5z"/>
		<circle class="st1" cx="37.5" cy="37.5" r="36.1"/>
	</g>
</g>
</svg>
