<?xml version="1.0" encoding="utf-8"?>
<!-- Generator: Adobe Illustrator 27.0.0, SVG Export Plug-In . SVG Version: 6.00 Build 0)  -->
<svg version="1.1" id="Layer_1" xmlns="http://www.w3.org/2000/svg" xmlns:xlink="http://www.w3.org/1999/xlink" x="0px" y="0px"
	 viewBox="0 0 75 75" style="enable-background:new 0 0 75 75;" xml:space="preserve">
<style type="text/css">
	.st0{fill:#0D9386;}
</style>
<g>
	<g>
		<path class="st0" d="M37.5,0C16.8,0,0,16.8,0,37.5S16.8,75,37.5,75S75,58.2,75,37.5S58.2,0,37.5,0z M37.5,2.8
			c19.1,0,34.6,15.5,34.6,34.6c0,3.9-0.7,7.8-2,11.5c-3-1.5-6.2-2.8-9.4-3.8c-0.4-0.1-0.8-0.3-1.2-0.5c0-0.2,0-0.5,0-0.7
			c2.6-0.5,5-1.6,7-3.3c0.4-0.4,0.6-1,0.5-1.5c-0.1-0.5-0.5-0.9-1.1-1c-0.6-0.3-2.1-2.4-2.1-8.6c0-6.5-4.5-11.5-10.2-11.5
			c-1.3,0-2.7,0.3-3.9,0.9c-0.3-4.5-2.6-5.8-4.8-6c-1.4-1.7-3.4-2.4-6.8-2.4c-1.9,0-3.8,0.5-5.5,1.3c-1.3,0.6-2.6,1-4,1
			c-0.9,0-2.4,0.4-3,2.8c-0.3,1.1-0.4,2.3-0.4,3.4h-0.2c-1.3-0.6-2.8-1-4.2-1c-2.1-0.2-4.2,0.4-5.8,1.7c-3.2,0.4-3.2,3.7-3.2,5.6
			c0,0.9,0.1,2.4,0.2,3.6c0,0.4,0,0.8,0,1.1c-1,1.3-1.4,3-0.9,4.6c0.3,1.5,1.2,2.8,2.4,3.6l0.3,0.2c0.4,1.3,0.9,2.5,1.5,3.6v1.6
			c0,0.3,0,0.6,0,0.9c-0.4,0.3-0.7,0.4-1.2,0.6c-3.2,1-6.4,2.3-9.4,3.8C-1.6,31,7.9,11.2,25.9,4.8C29.6,3.5,33.5,2.8,37.5,2.8z
			 M62.6,55.1c-1.9-2.1-5.9-4-14.7-7.2c1.9-0.4,3.1-2.2,2.8-4.1v-1.1c0-0.8-0.7-1.5-1.5-1.5c-1,0-2-0.3-3-0.6c0.4-1,0.8-2.1,1-2.9
			c0.2-0.1,0.4-0.2,0.6-0.3c1.6-1.1,2.6-2.8,3-4.6c0.6-2.1,0.1-4.3-1.3-5.9c0-0.5,0-1.1,0.1-1.8c0-0.8,0.1-1.8,0.1-2.7
			c1.1-0.9,2.5-1.3,3.9-1.3c3.5,0,7.2,3,7.2,8.6s1.1,8.4,2.2,9.9c-1.5,1-3.2,1.5-5,1.6c-0.8,0-1.5,0.7-1.5,1.5v1.1
			c0,2.3,0.5,3.3,3.2,4.3c3.2,1,6.2,2.3,9.2,3.8c-1.2,2.5-2.6,4.9-4.3,7.1C64.2,57.5,63.5,56.2,62.6,55.1z M47.7,44
			c0,0.2,0,0.5,0,0.7c-0.4,0.3-0.7,0.4-1.2,0.6l-1.5,0.5c0-0.2,0-0.3,0-0.5v-2.1C45.9,43.6,46.8,43.8,47.7,44z M10.2,59
			c-1.7-2.2-3.1-4.6-4.2-7.1c3-1.5,6.1-2.8,9.2-3.8c2.7-1,3.2-2,3.2-4.3v-2.1c0-0.4-0.2-0.8-0.4-1.1c-0.7-1.2-1.2-2.5-1.5-3.8
			c-0.2-0.7-0.8-1.1-1.5-1.1c-0.5-0.4-0.8-1-1-1.7c-0.2-0.6-0.1-1.2,0.2-1.8c1-0.4,0.9-1.2,0.8-3.4c-0.1-1.2-0.2-2.6-0.2-3.5
			c0-2.7,0.2-2.7,0.9-2.7c0.5,0,1-0.3,1.3-0.7c0.2-0.3,1.2-0.9,3.8-0.9c1,0,2.1,0.3,3,0.8c0.4,0.2,0.9,0.3,1.4,0.5
			c0,1.5,0.2,3,0.2,4c0,0.2,0,0.4,0,0.5c-1.4,1.6-1.8,3.8-1.3,5.9c0.3,1.4,1,2.8,2,3.9c0,0.1-0.1,0.2-0.1,0.3
			c-0.3,1.3-0.8,2.6-1.5,3.8c-0.3,0.3-0.4,0.7-0.4,1.1v2.1c-0.3,1.9,0.9,3.7,2.8,4.1C18.3,51,14.3,53,12.4,55.1
			C11.5,56.2,10.7,57.5,10.2,59L10.2,59z M28.5,45.2c-0.4-0.1-0.8-0.3-1.2-0.5c0-0.3,0-0.6,0-0.9v-1.6c0.5-0.8,0.9-1.7,1.2-2.7
			c0.4,1.2,0.9,2.3,1.5,3.4v2.4c0,0.2,0,0.3,0,0.5L28.5,45.2z M37.5,72.2c-9.4,0-18.4-3.8-24.9-10.5c0.3-1.6,1-3.2,2-4.5
			c1.5-1.6,5.5-3.6,13.6-6.5c2.8-1,4.7-1.9,4.7-5.4v-3c0-0.4-0.1-0.8-0.4-1c-1-1.7-1.7-3.6-2.1-5.5c-0.2-0.7-0.9-1.2-1.6-1.1
			c-0.9-0.7-1.5-1.7-1.7-2.8c-0.3-1-0.1-2.1,0.4-3c1.1-0.3,1-1.2,0.9-3c-0.1-1.5-0.3-4.1-0.3-6c-0.1-1.4,0-2.8,0.5-4.2
			c1.8-0.1,3.5-0.5,5.1-1.2c1.4-0.7,2.8-1,4.3-1.1c3.7,0,4.3,1,4.7,1.5c0.3,0.5,0.8,0.7,1.3,0.7c1,0,2.7,0,2.7,4.2
			c0,1.2-0.1,3.2-0.2,4.8c-0.2,3.2-0.2,3.8,0.9,4.2c0.5,0.9,0.7,2,0.4,3C47.6,33,47,34,46.2,34.7c-0.7-0.1-1.4,0.4-1.6,1.1
			c-0.5,1.9-1.2,3.7-2.1,5.4c-0.3,0.3-0.4,0.7-0.4,1.1v3c0,3.4,1.9,4.3,4.7,5.4c8.1,3,12.2,4.9,13.7,6.5c1,1.3,1.7,2.9,2,4.5
			C55.9,68.4,46.9,72.2,37.5,72.2L37.5,72.2z"/>
	</g>
</g>
</svg>
